# xmcd CD database file
#
# Track frame offsets:
#	150
#	16987
#	29287
#	45700
#	72600
#	85437
#	100912
#	118087
#	141937
#	156912
#	181075
#	207850
#	220950
#	241450
#	260475
#	273237
#	288975
#	304037
#
# Disc length: 4215 seconds
#
# Revision: 0
# Processed by: cddbd v1.5.1PL0 Copyright (c) Steve Scherf et al.
# Submitted via: CDex 1.51
#
DISCID=0c107512
DTITLE=Various Artist - The Number 1 Jazz Album 2004 CD 1
DYEAR=1900
DGENRE=Jazz
TTITLE0=Nat King Cole - When I Fall In Love
TTITLE1=Jamie Cullum - I Get a Kick Out of You
TTITLE2=Ella Fitzgerald - The Lady is a Tramp
TTITLE3=Bing Corsby - Have You Met Miss Jones?
TTITLE4=Nina Simone - Feeling Good
TTITLE5=Billie Holiday - It Had to be You
TTITLE6=Dinah Washington - What a Difference a Day Made
TTITLE7=Peggy Lee - Black Coffee
TTITLE8=Etta James - At Last
TTITLE9=Louis Armstrong - Dream a Little Dream
TTITLE10=Stacey Kent - You've Got a Friend
TTITLE11=Peter Cincotti - Sway
TTITLE12=Quincy Jones - Watermelon Man
TTITLE13=Glenn Miller - In the Mood
TTITLE14=Shirley Horn - Come Dance With Me
TTITLE15=Clare Teal - Night and Day
TTITLE16=Chet Baker - These Foolilsh Things
TTITLE17=Gwyn and Will - Beguiling Eyes
EXTD=
EXTT0=
EXTT1=
EXTT2=
EXTT3=
EXTT4=
EXTT5=
EXTT6=
EXTT7=
EXTT8=
EXTT9=
EXTT10=
EXTT11=
EXTT12=
EXTT13=
EXTT14=
EXTT15=
EXTT16=
EXTT17=
PLAYORDER=
